<svg width="226" height="99" viewBox="0 0 226 99" fill="none" xmlns="http://www.w3.org/2000/svg">
<g filter="url(#filter0_d_47_509)">
<path d="M79.3066 32.1693C79.3066 36.0187 77.9953 39.2758 75.3727 41.9407C72.75 44.5633 69.5141 45.8746 65.6648 45.8746C61.7731 45.8746 58.516 44.5633 55.8934 41.9407C53.2708 39.3181 51.9595 36.061 51.9595 32.1693V10.3424C51.9595 9.07342 52.3402 8.03706 53.1016 7.23336C53.9053 6.42965 54.9416 6.0278 56.2106 6.0278C57.4797 6.0278 58.516 6.42965 59.3197 7.23336C60.1234 8.03706 60.5253 9.07342 60.5253 10.3424V13.7053H75.0554C76.3244 13.7053 77.3396 14.1071 78.101 14.9109C78.9047 15.6723 79.3066 16.6875 79.3066 17.9565C79.3066 20.8329 77.8895 22.2711 75.0554 22.2711H60.5253V32.1693C60.5253 33.6076 61.0117 34.8343 61.9846 35.8495C62.9998 36.8224 64.2265 37.3088 65.6648 37.3088C67.103 37.3088 68.3085 36.8224 69.2814 35.8495C70.2543 34.8343 70.7408 33.6076 70.7408 32.1693V31.5983C70.7408 30.3716 71.1426 29.3564 71.9463 28.5527C72.7923 27.749 73.8287 27.3471 75.0554 27.3471C76.2821 27.3471 77.2973 27.749 78.101 28.5527C78.9047 29.3564 79.3066 30.3716 79.3066 31.5983V32.1693Z" fill="#474747"/>
<path d="M48.4428 41.6234C48.4428 42.8925 48.041 43.9288 47.2373 44.7325C46.4336 45.4939 45.3972 45.8746 44.1282 45.8746C42.8592 45.8746 41.8228 45.4939 41.0191 44.7325C40.2577 43.9288 39.877 42.8925 39.877 41.6234V17.8296C39.877 16.5605 40.2577 15.5453 41.0191 14.7839C41.8228 13.9802 42.8592 13.5784 44.1282 13.5784C47.0046 13.5784 48.4428 14.9954 48.4428 17.8296V41.6234ZM44.1282 0C42.69 0 41.4421 0.528754 40.3846 1.58626C39.3694 2.60147 38.8618 3.82817 38.8618 5.26638C38.8618 6.70459 39.3694 7.95245 40.3846 9.00995C41.4421 10.0252 42.69 10.5328 44.1282 10.5328C45.5664 10.5328 46.7931 10.0252 47.8083 9.00995C48.8658 7.95245 49.3946 6.70459 49.3946 5.26638C49.3946 3.82817 48.8658 2.60147 47.8083 1.58626C46.7931 0.528754 45.5664 0 44.1282 0Z" fill="#474747"/>
<path d="M20.1803 37.4357C22.2953 37.4357 24.0931 36.6955 25.5736 35.215C27.0964 33.6922 27.8578 31.8733 27.8578 29.7582C27.8578 27.6432 27.0964 25.8455 25.5736 24.365C24.0931 22.8845 22.2953 22.1442 20.1803 22.1442C18.0653 22.1442 16.2676 22.8845 14.7871 24.365C13.3065 25.8455 12.5663 27.6432 12.5663 29.7582V54.5673C12.5663 55.8363 12.1644 56.8727 11.3607 57.6764C10.557 58.4801 9.52067 58.882 8.25166 58.882C6.98266 58.882 5.9463 58.4801 5.1426 57.6764C4.38119 56.8727 4.00049 55.8363 4.00049 54.5673V29.7582C4.00049 25.1898 5.54445 21.3616 8.63237 18.2737C11.7626 15.1435 15.6119 13.5784 20.1803 13.5784C24.7488 13.5784 28.5981 15.1435 31.7283 18.2737C34.8585 21.3616 36.4236 25.1898 36.4236 29.7582C36.4236 34.3267 34.8585 38.176 31.7283 41.3062C28.5981 44.4364 24.7488 46.0015 20.1803 46.0015C18.9113 46.0015 17.875 45.5997 17.0713 44.796C16.3099 43.9923 15.9292 42.9559 15.9292 41.6869C15.9292 40.4179 16.3099 39.4027 17.0713 38.6413C17.875 37.8376 18.9113 37.4357 20.1803 37.4357Z" fill="#474747"/>
<rect width="14.2743" height="12.6268" transform="matrix(0.999996 0.00277286 -0.00313425 0.999995 90.2192 65.7072)" fill="#474747"/>
<rect width="14.2743" height="12.6268" transform="matrix(-0.999996 -0.00277286 0.00313425 -0.999995 90.1445 90.9597)" fill="#474747"/>
<rect width="14.2743" height="12.6268" transform="matrix(0.999996 0.00277286 -0.00313425 0.999995 61.4922 65.6279)" fill="#474747"/>
<rect width="14.2743" height="12.6268" transform="matrix(-0.999996 -0.00277286 0.00313425 -0.999995 61.4175 90.8802)" fill="#474747"/>
<rect width="14.2743" height="12.6268" transform="matrix(0.999996 0.00277286 -0.00313425 0.999995 32.7651 65.5481)" fill="#474747"/>
<rect width="14.2743" height="12.6268" transform="matrix(-0.999996 -0.00277286 0.00313425 -0.999995 32.6904 90.8006)" fill="#474747"/>
<rect width="14.2743" height="12.6268" transform="matrix(0.999996 0.00285768 -0.00303983 0.999995 4.03809 65.4685)" fill="#474747"/>
<rect width="14.2743" height="12.6268" transform="matrix(-0.999996 -0.00277286 0.00313425 -0.999995 118.948 90.7614)" fill="#474747"/>
<rect width="14.2743" height="12.6268" transform="matrix(0.999996 0.00277286 -0.00313425 0.999995 119.022 65.5089)" fill="#474747"/>
<rect width="14.2743" height="12.6268" transform="matrix(-0.999996 -0.00277286 0.00313425 -0.999995 147.675 90.8407)" fill="#474747"/>
<rect width="14.2743" height="12.6268" transform="matrix(0.999996 0.00277286 -0.00313425 0.999995 147.75 65.5884)" fill="#474747"/>
<rect width="14.2743" height="12.6268" transform="matrix(-0.999996 -0.00277286 0.00313425 -0.999995 176.402 90.9205)" fill="#474747"/>
<rect width="14.2743" height="12.6268" transform="matrix(0.999996 0.00277286 -0.00313425 0.999995 176.476 65.668)" fill="#474747"/>
<rect width="14.2743" height="12.6268" transform="matrix(0.999996 0.00277286 -0.00313425 0.999995 205.207 65.4685)" fill="#474747"/>
<rect width="14.2743" height="12.6268" transform="matrix(-0.999996 -0.00285768 0.00303983 -0.999995 205.129 91)" fill="#474747"/>
<path d="M136.9 32.7809C136.9 36.6162 135.604 39.8615 133.014 42.5167C130.423 45.1298 127.227 46.4363 123.424 46.4363C119.58 46.4363 116.363 45.1298 113.772 42.5167C111.182 39.9036 109.886 36.6584 109.886 32.7809V11.0335C109.886 9.76909 110.262 8.7365 111.014 7.93572C111.808 7.13495 112.832 6.73456 114.086 6.73456C115.339 6.73456 116.363 7.13495 117.157 7.93572C117.951 8.7365 118.348 9.76909 118.348 11.0335V14.3841H132.7C133.954 14.3841 134.957 14.7845 135.709 15.5853C136.503 16.3439 136.9 17.3554 136.9 18.6198C136.9 21.4857 135.5 22.9187 132.7 22.9187H118.348V32.7809C118.348 34.2139 118.828 35.4361 119.789 36.4476C120.792 37.417 122.004 37.9017 123.424 37.9017C124.845 37.9017 126.036 37.417 126.997 36.4476C127.958 35.4361 128.438 34.2139 128.438 32.7809V32.212C128.438 30.9897 128.835 29.9782 129.629 29.1774C130.465 28.3766 131.489 27.9763 132.7 27.9763C133.912 27.9763 134.915 28.3766 135.709 29.1774C136.503 29.9782 136.9 30.9897 136.9 32.212V32.7809Z" fill="#474747"/>
<path d="M99.4968 23.9041C98.7768 24.6255 98.4168 25.5166 98.4168 26.5774L98.3533 33.9609C98.3109 37.4404 97.0827 40.3895 94.6686 42.8083C92.2968 45.227 89.3744 46.4363 85.9015 46.4363C84.6309 46.4363 83.5933 46.0544 82.7886 45.2906C82.0262 44.4844 81.645 43.4448 81.645 42.1718C81.645 40.8987 82.0262 39.8591 82.7886 39.0529C83.5933 38.2466 84.6309 37.8435 85.9015 37.8435C87.0027 37.8435 87.9133 37.4828 88.6333 36.7615C89.3956 35.9977 89.7768 35.0641 89.7768 33.9609C89.7768 33.5789 89.7768 33.1546 89.7768 32.6878C89.8191 30.9905 89.8403 30.1206 89.8403 30.0782V26.5774C89.8403 23.0554 91.0262 20.1063 93.398 17.73C95.8121 15.3113 98.7768 14.1019 102.292 14.1019C103.563 14.1019 104.6 14.505 105.405 15.3113C106.21 16.0751 106.612 17.0935 106.612 18.3665C106.612 19.5971 106.231 20.5943 105.469 21.3581C104.706 22.1219 103.69 22.5674 102.419 22.6947C101.191 22.7796 100.217 23.1827 99.4968 23.9041Z" fill="#474747"/>
<path d="M205.101 37.8815C207.228 37.8815 209.036 37.1446 210.525 35.6709C212.056 34.1551 212.822 32.3445 212.822 30.2392C212.822 28.134 212.056 26.3445 210.525 24.8707C209.036 23.397 207.228 22.6602 205.101 22.6602C202.975 22.6602 201.167 23.397 199.678 24.8707C198.19 26.3445 197.445 28.134 197.445 30.2392V54.9343C197.445 56.1975 197.041 57.2291 196.233 58.0291C195.425 58.8291 194.383 59.2291 193.107 59.2291C191.831 59.2291 190.789 58.8291 189.98 58.0291C189.215 57.2291 188.832 56.1975 188.832 54.9343V30.2392C188.832 25.6918 190.385 21.8812 193.49 18.8075C196.637 15.6917 200.508 14.1338 205.101 14.1338C209.695 14.1338 213.566 15.6917 216.713 18.8075C219.861 21.8812 221.435 25.6918 221.435 30.2392C221.435 34.7867 219.861 38.6183 216.713 41.7341C213.566 44.85 209.695 46.4079 205.101 46.4079C203.825 46.4079 202.783 46.0079 201.975 45.2079C201.21 44.4079 200.827 43.3763 200.827 42.1131C200.827 40.8499 201.21 39.8394 201.975 39.0815C202.783 38.2815 203.825 37.8815 205.101 37.8815Z" fill="#474747"/>
<path fill-rule="evenodd" clip-rule="evenodd" d="M162.676 10.8568C161.671 10.8899 160.831 10.9955 160.103 11.1801C158.185 11.6665 156.811 12.7497 155.565 14.7563C155.506 14.8512 155.446 14.95 155.431 14.976L155.403 15.0233L155.727 14.9135C155.904 14.853 156.29 14.7217 156.584 14.6215C157.392 14.3461 157.754 14.2323 158.204 14.1121C159.232 13.8377 160.222 13.7037 161.913 13.6104C162.59 13.5731 162.833 13.5536 163.185 13.5084C164.162 13.3831 164.82 13.1613 165.381 12.7689C165.647 12.5824 165.911 12.3375 166.321 11.8964C166.641 11.5528 166.834 11.3494 166.997 11.1839C167.07 11.1099 167.127 11.0494 167.123 11.0494C167.119 11.0494 166.953 11.0359 166.755 11.0194C165.893 10.9477 165.076 10.8965 164.324 10.8669C163.96 10.8525 162.986 10.8466 162.676 10.8568ZM156.548 11.2125C155.845 11.2461 155.162 11.3301 154.575 11.4553C153.386 11.7089 152.614 12.1223 152.35 12.6468C152.124 13.0966 152.258 13.6292 152.749 14.2326C152.917 14.4399 153.155 14.6817 153.4 14.8959L153.477 14.9623L153.599 14.8439C153.666 14.7788 153.799 14.6576 153.894 14.5747C154.072 14.4195 154.156 14.3494 154.926 13.7106C155.678 13.0872 155.978 12.821 156.376 12.4242C156.737 12.0643 156.924 11.8453 157.105 11.5718C157.18 11.4581 157.296 11.2405 157.296 11.2136C157.296 11.1998 156.827 11.1991 156.548 11.2125ZM172.003 11.5474C171.359 11.5858 170.624 11.802 169.852 12.1804C168.247 12.9666 166.865 14.3709 165.746 16.3537C164.577 18.424 163.704 21.1185 163.181 24.2694C162.942 25.7055 162.776 27.2912 162.707 28.7978C162.655 29.9141 162.654 31.1672 162.702 32.1649C162.88 35.8237 163.553 39.1604 164.678 41.962C165.398 43.7543 166.292 45.2848 167.305 46.4599C168.618 47.9832 170.099 48.8844 171.601 49.0752C172.043 49.1313 172.545 49.1224 172.989 49.0507C173.728 48.9314 174.475 48.6262 175.181 48.1553C176.785 47.0866 178.22 45.1597 179.404 42.4859C179.744 41.7175 180.079 40.847 180.364 39.9944C181.062 37.9006 181.483 35.1832 181.604 31.9823C181.615 31.6806 181.64 30.5695 181.639 30.3901C181.637 29.9224 181.608 28.8015 181.583 28.2653C181.365 23.4689 180.427 19.2183 179.038 16.734C178.324 15.4563 177.335 14.2207 176.309 13.3246C174.87 12.0678 173.407 11.4638 172.003 11.5474ZM150.815 14.2898C150.688 14.314 150.551 14.3626 150.408 14.4348C150.103 14.5887 149.829 14.8033 149.464 15.1737C148.819 15.8287 148.102 16.8346 147.351 18.1387C147.276 18.2697 147.206 18.391 147.195 18.4082L147.177 18.4393L147.33 18.6161C147.668 19.0064 148.128 19.4895 148.9 20.2682C149.163 20.5333 149.544 20.9187 149.747 21.1247C149.949 21.3307 150.117 21.4973 150.119 21.4949C150.138 21.4758 151.72 18.6087 151.734 18.5697C151.763 18.4838 151.83 18.2336 151.874 18.0428C151.954 17.6979 152.019 17.3028 152.055 16.9368C152.08 16.6744 152.08 16.0359 152.055 15.8212C152.006 15.4122 151.935 15.1377 151.814 14.887C151.66 14.5659 151.466 14.3801 151.205 14.3034C151.114 14.2766 150.921 14.2698 150.815 14.2898ZM163.037 14.6099C160.905 14.6477 159.203 14.86 157.8 15.2631C154.904 16.0954 153.116 17.8117 152.06 20.7755C151.96 21.0541 151.743 21.7456 151.743 21.7825C151.743 21.7994 152.908 21.3538 154.224 20.8335C155.113 20.4822 155.419 20.3642 155.734 20.2513C157.331 19.6784 158.553 19.4934 161.049 19.4462C161.376 19.44 161.644 19.4342 161.645 19.4333C161.657 19.4155 163.856 14.6169 163.856 14.6096C163.856 14.598 163.707 14.598 163.037 14.6099ZM146.67 20.0236C146.264 20.5141 145.913 21.1135 145.59 21.8701C144.941 23.3889 144.499 25.4506 144.364 27.5858C144.346 27.8747 144.325 28.403 144.33 28.4594L144.333 28.5013L146.662 30.3483C147.943 31.3642 148.994 32.1953 148.997 32.1953C149.001 32.1953 149.007 32.0595 149.01 31.8936C149.053 30.0354 149.178 27.5561 149.347 25.2126C149.397 24.527 149.403 24.39 149.403 24.0514C149.403 23.576 149.371 23.1991 149.301 22.8445C149.068 21.6695 148.473 20.8857 147.303 20.2127C147.184 20.1445 146.864 19.9755 146.797 19.9461L146.751 19.9259L146.67 20.0236ZM159.132 20.5693C156.577 20.6529 154.601 21.3124 153.174 22.5582C152.327 23.2967 151.661 24.264 151.199 25.4242C150.705 26.6657 150.44 28.0346 150.349 29.8221C150.322 30.3418 150.328 31.6608 150.358 32.0034L150.365 32.0803L150.858 31.6611C151.402 31.1988 151.65 30.9607 152.058 30.5118C152.305 30.2389 152.843 29.7007 153.034 29.5339C154.068 28.6339 155.054 28.148 156.492 27.8293C157.103 27.6941 157.69 27.5999 159.147 27.4033C160.018 27.2858 160.37 27.2367 160.375 27.2322C160.382 27.225 161.456 20.6506 161.451 20.6455C161.438 20.6325 160.767 20.589 160.327 20.5727C160.09 20.5639 159.36 20.5618 159.132 20.5693ZM172.705 20.914C172.251 20.9574 171.869 21.1047 171.468 21.3912C171.232 21.5598 170.908 21.8635 170.702 22.1092C170.069 22.8657 169.568 23.8688 169.222 25.0743C168.884 26.2471 168.658 27.5358 168.571 28.7826C168.539 29.24 168.534 29.3739 168.528 29.9238C168.516 31.0431 168.583 31.9932 168.749 33.032C169.285 36.4056 170.737 39.0785 172.318 39.603C172.556 39.6817 172.635 39.6944 172.893 39.6946C173.089 39.6948 173.13 39.692 173.223 39.6717C173.981 39.5071 174.622 38.8945 175.23 37.7531C175.632 36.9985 176.091 35.6721 176.295 34.6766C176.763 32.3879 176.75 28.6238 176.264 25.8729C176.038 24.5936 175.754 23.6844 175.342 22.9206C174.67 21.6743 173.881 21.0013 172.995 20.9179C172.888 20.9079 172.783 20.9065 172.705 20.914ZM159.05 28.6059C156.637 28.6933 154.775 29.3102 153.466 30.4564C153.321 30.5835 153.058 30.8502 152.927 31.0021C152.117 31.9472 151.634 33.1332 151.478 34.5584C151.438 34.929 151.432 35.0517 151.432 35.5878C151.432 36.1386 151.439 36.28 151.484 36.7237C151.637 38.246 152.071 39.8741 152.798 41.6552C152.857 41.8016 152.909 41.9214 152.913 41.9214C152.917 41.9214 153.137 41.6966 153.403 41.4219C155.376 39.3787 156.363 38.4596 157.169 37.9133C157.505 37.6856 157.77 37.5398 158.527 37.1677C159.103 36.884 159.171 36.8544 159.508 36.7389C160.074 36.5449 160.341 36.4254 160.646 36.2285L160.756 36.1572L160.75 35.9993C160.746 35.9124 160.702 34.2166 160.651 32.2308C160.6 30.245 160.558 28.6196 160.557 28.6187C160.556 28.6178 160.402 28.6121 160.215 28.606C159.842 28.5939 159.383 28.5938 159.05 28.6059ZM144.267 30.4779C144.267 30.7615 144.272 31.1144 144.277 31.2623C144.373 33.7635 144.792 36.4433 145.356 38.1664C145.396 38.2877 145.454 38.4508 145.485 38.5289C145.907 39.5985 146.816 40.3734 148.301 40.9313C148.962 41.1793 149.753 41.3901 151.009 41.6524C151.185 41.6891 151.331 41.7167 151.334 41.7138C151.339 41.7086 150.939 40.4229 150.642 39.4924C149.767 36.7438 149.083 35.0856 148.268 33.7341C147.776 32.9179 147.283 32.2808 146.678 31.6776C146 31.0009 145.327 30.5123 144.448 30.056L144.267 29.9624L144.267 30.4779ZM160.099 37.8341C159.139 37.8886 158.297 38.1097 157.515 38.5129C156.673 38.9467 155.969 39.5706 155.46 40.3342C155.304 40.5694 155.235 40.6864 155.12 40.9159C154.833 41.4883 154.659 42.0888 154.594 42.7349C154.57 42.9715 154.57 43.4532 154.594 43.681C154.725 44.9201 155.259 46.014 156.186 46.9397C156.385 47.1388 156.784 47.4868 156.834 47.5064C156.848 47.5115 156.93 47.4626 157.107 47.3448C157.455 47.113 157.675 46.918 158.077 46.4861C158.5 46.0313 158.73 45.8113 159.055 45.5526C159.446 45.2416 159.788 45.0201 160.175 44.8279C160.521 44.6554 160.785 44.5579 161.385 44.3812C162.004 44.1986 162.291 44.0939 162.649 43.9213C162.824 43.8369 162.85 43.8212 162.847 43.8032C162.844 43.7918 162.433 42.4469 161.933 40.8147L161.024 37.8469L160.952 37.8405C160.829 37.8295 160.257 37.8252 160.099 37.8341ZM147.095 41.4512C147.095 41.4616 147.115 41.5477 147.14 41.6425C147.27 42.1415 147.436 42.5728 147.71 43.1232C148.185 44.0772 148.839 45.0151 149.672 45.9376C149.844 46.1289 150.455 46.7381 150.644 46.9075C151.3 47.4959 151.936 47.9701 152.602 48.3689C153.794 49.0822 154.939 49.4742 156.075 49.5582C156.218 49.5687 156.716 49.5724 156.716 49.563C156.716 49.5497 156.413 49.0737 156.261 48.8483C155.888 48.2961 155.535 47.8561 154.942 47.2053C154.523 46.745 154.354 46.547 153.7 45.75C152.82 44.6758 152.565 44.3891 152.007 43.8446C151.054 42.9145 149.973 42.2542 148.717 41.8347C148.288 41.6915 147.858 41.5785 147.395 41.4867C147.104 41.4292 147.095 41.428 147.095 41.4512ZM162.681 45.2683C162.005 45.3257 161.368 45.4641 160.786 45.6803C159.8 46.0469 159.096 46.5828 158.816 47.18C158.725 47.3741 158.679 47.56 158.672 47.7698C158.661 48.0636 158.721 48.323 158.872 48.627C158.981 48.8461 159.078 48.9715 159.229 49.0869C160.017 49.692 162.015 49.9204 165.346 49.7863C165.93 49.7628 167.382 49.6869 167.389 49.6796C167.397 49.6714 163.571 45.2839 163.548 45.2744C163.518 45.2623 162.81 45.2574 162.681 45.2683Z" fill="#C66D2C"/>
</g>
<defs>
<filter id="filter0_d_47_509" x="-0.000488281" y="0" width="225.435" height="99" filterUnits="userSpaceOnUse" color-interpolation-filters="sRGB">
<feFlood flood-opacity="0" result="BackgroundImageFix"/>
<feColorMatrix in="SourceAlpha" type="matrix" values="0 0 0 0 0 0 0 0 0 0 0 0 0 0 0 0 0 0 127 0" result="hardAlpha"/>
<feOffset dy="4"/>
<feGaussianBlur stdDeviation="2"/>
<feComposite in2="hardAlpha" operator="out"/>
<feColorMatrix type="matrix" values="0 0 0 0 0 0 0 0 0 0 0 0 0 0 0 0 0 0 0.25 0"/>
<feBlend mode="normal" in2="BackgroundImageFix" result="effect1_dropShadow_47_509"/>
<feBlend mode="normal" in="SourceGraphic" in2="effect1_dropShadow_47_509" result="shape"/>
</filter>
</defs>
</svg>
