<svg width="1037" height="1971" viewBox="0 0 1037 1971" fill="none" xmlns="http://www.w3.org/2000/svg">
<path fill-rule="evenodd" clip-rule="evenodd" d="M1652.37 1442.02L859.749 315.403C800.804 231.619 685.065 211.506 601.241 270.48C517.416 329.454 497.248 445.183 556.194 528.967L1348.81 1655.58C1407.76 1739.37 1523.5 1759.48 1607.32 1700.5C1691.14 1641.53 1711.31 1525.8 1652.37 1442.02ZM573.662 231.28C468.177 305.493 442.797 451.125 516.974 556.559L1309.59 1683.17C1383.77 1788.61 1529.41 1813.92 1634.9 1739.7C1740.38 1665.49 1765.76 1519.86 1691.59 1414.43L898.968 287.811C824.791 182.377 679.147 157.068 573.662 231.28Z" fill="#253F54"/>
<path fill-rule="evenodd" clip-rule="evenodd" d="M1604.63 1473.28L814.196 349.769C773.651 292.139 694.049 278.299 636.4 318.858C578.751 359.416 564.886 439.013 605.431 496.643L1395.87 1620.16C1436.41 1677.79 1516.02 1691.63 1573.67 1651.07C1631.31 1610.51 1645.18 1530.91 1604.63 1473.28ZM608.801 279.629C529.48 335.434 510.402 444.956 566.19 524.251L1356.63 1647.77C1412.42 1727.06 1521.94 1746.1 1601.26 1690.3C1680.59 1634.49 1699.66 1524.97 1643.88 1445.68L853.437 322.161C797.649 242.866 688.122 223.823 608.801 279.629Z" fill="#3B546C"/>
<path fill-rule="evenodd" clip-rule="evenodd" d="M1554.08 1506.37L766.509 386.923C744.882 356.183 702.558 348.706 671.976 370.222C641.394 391.738 634.133 434.1 655.76 464.839L1443.34 1584.29C1464.96 1615.02 1507.29 1622.5 1537.87 1600.99C1568.45 1579.47 1575.71 1537.11 1554.08 1506.37ZM644.4 331.026C592.28 367.694 579.907 439.888 616.764 492.275L1404.34 1611.72C1441.2 1664.11 1513.32 1676.85 1565.44 1640.18C1617.56 1603.51 1629.94 1531.32 1593.08 1478.93L805.505 359.488C768.648 307.101 696.519 294.358 644.4 331.026Z" fill="#C66D2C"/>
</svg>
