<svg width="31" height="32" viewBox="0 0 31 32" fill="none" xmlns="http://www.w3.org/2000/svg">
<path fill-rule="evenodd" clip-rule="evenodd" d="M15.5 31.9659C17.5355 31.9659 19.551 31.565 21.4316 30.7861C23.3121 30.0071 25.0208 28.8654 26.4602 27.4261C27.8995 25.9868 29.0412 24.2781 29.8201 22.3975C30.5991 20.517 31 18.5014 31 16.4659C31 14.4305 30.5991 12.4149 29.8201 10.5343C29.0412 8.6538 27.8995 6.9451 26.4602 5.50579C25.0208 4.06648 23.3121 2.92476 21.4316 2.14581C19.551 1.36686 17.5355 0.965942 15.5 0.965942C11.3891 0.965942 7.44666 2.59897 4.53984 5.50579C1.63303 8.4126 0 12.3551 0 16.4659C0 20.5768 1.63303 24.5193 4.53984 27.4261C7.44666 30.3329 11.3891 31.9659 15.5 31.9659ZM15.1004 22.7348L23.7116 12.4015L21.0662 10.1971L13.6607 19.082L9.82872 15.2483L7.3935 17.6836L12.5602 22.8502L13.8932 24.1832L15.1004 22.7348Z" fill="#315C32"/>
</svg>
