<svg width="32" height="32" viewBox="0 0 32 32" fill="none" xmlns="http://www.w3.org/2000/svg">
<path d="M16 0.528442C12.9468 0.528442 9.96207 1.43384 7.42339 3.13013C4.88471 4.82642 2.90604 7.23743 1.73762 10.0583C0.569189 12.8791 0.263475 15.9831 0.859134 18.9776C1.45479 21.9722 2.92507 24.7229 5.08405 26.8819C7.24302 29.0409 9.99372 30.5112 12.9883 31.1068C15.9829 31.7025 19.0868 31.3968 21.9077 30.2283C24.7285 29.0599 27.1395 27.0812 28.8358 24.5426C30.5321 22.0039 31.4375 19.0192 31.4375 15.9659C31.4332 11.873 29.8053 7.94891 26.9112 5.05476C24.017 2.1606 20.093 0.532765 16 0.528442ZM21.5902 19.8758C21.7005 19.9861 21.788 20.1171 21.8477 20.2613C21.9074 20.4054 21.9382 20.5599 21.9382 20.7159C21.9382 20.872 21.9074 21.0265 21.8477 21.1706C21.788 21.3148 21.7005 21.4458 21.5902 21.5561C21.4798 21.6664 21.3489 21.7539 21.2047 21.8137C21.0605 21.8734 20.906 21.9041 20.75 21.9041C20.594 21.9041 20.4395 21.8734 20.2953 21.8137C20.1512 21.7539 20.0202 21.6664 19.9098 21.5561L16 17.6448L12.0902 21.5561C11.9798 21.6664 11.8489 21.7539 11.7047 21.8137C11.5605 21.8734 11.406 21.9041 11.25 21.9041C11.094 21.9041 10.9395 21.8734 10.7953 21.8137C10.6512 21.7539 10.5202 21.6664 10.4098 21.5561C10.2995 21.4458 10.212 21.3148 10.1523 21.1706C10.0926 21.0265 10.0618 20.872 10.0618 20.7159C10.0618 20.5599 10.0926 20.4054 10.1523 20.2613C10.212 20.1171 10.2995 19.9861 10.4098 19.8758L14.3212 15.9659L10.4098 12.0561C10.187 11.8333 10.0618 11.5311 10.0618 11.2159C10.0618 10.9008 10.187 10.5986 10.4098 10.3758C10.6327 10.153 10.9349 10.0278 11.25 10.0278C11.5651 10.0278 11.8673 10.153 12.0902 10.3758L16 14.2871L19.9098 10.3758C20.0202 10.2655 20.1512 10.1779 20.2953 10.1182C20.4395 10.0585 20.594 10.0278 20.75 10.0278C20.906 10.0278 21.0605 10.0585 21.2047 10.1182C21.3489 10.1779 21.4798 10.2655 21.5902 10.3758C21.7005 10.4861 21.788 10.6171 21.8477 10.7613C21.9074 10.9054 21.9382 11.0599 21.9382 11.2159C21.9382 11.372 21.9074 11.5265 21.8477 11.6706C21.788 11.8148 21.7005 11.9458 21.5902 12.0561L17.6788 15.9659L21.5902 19.8758Z" fill="#B7B6B3"/>
</svg>
