<svg width="625" height="781" viewBox="0 0 625 781" fill="none" xmlns="http://www.w3.org/2000/svg">
<path fill-rule="evenodd" clip-rule="evenodd" d="M39.7347 168.578C43.6884 186.018 45.7575 190.875 56.535 207.985C67.0302 224.642 77.4005 234.26 94.3436 243.041C108.923 250.601 127.135 252.248 163.458 249.296C197.98 246.492 188.078 236.526 335.818 422.743C480.271 604.817 488.121 614.222 499.989 619.36C515.872 626.24 538.708 624.43 554.485 615.044C581.37 599.05 593.624 565.126 582.738 536.845C579.687 528.919 571.898 517.08 564.463 509.068C546.19 489.377 387.913 310.485 330.77 244.939C304.506 214.81 280.387 185.601 277.172 180.033C272.323 171.626 271.566 167.264 272.716 154.362C273.478 145.81 275.711 132.876 277.677 125.615C291.153 75.8709 258.154 23.4129 203.14 7.12316C186.913 2.31866 164.656 0.957256 162.17 4.61589C161.294 5.90778 166.892 18.774 174.611 33.2104C201.179 82.8924 203.027 92.0573 190.399 111.546C178.618 129.725 147.73 147.68 128.819 147.344C108.952 146.99 100.893 139.403 81.5293 102.816C63.239 68.2526 59.5115 64.8793 52.9581 76.9378C40.3224 100.184 34.0634 143.56 39.7347 168.578ZM495.471 570.221C498.608 586.099 514.989 597.277 531.05 594.501C541.687 592.661 555.657 578.845 558.324 567.534C561.049 555.975 554.299 538.722 544.897 533.214C536.109 528.068 522.505 527.786 512.938 532.554C501.053 538.477 492.739 556.403 495.471 570.221Z" fill="#264F28"/>
<path fill-rule="evenodd" clip-rule="evenodd" d="M498.619 123.167C483.34 131.019 479.295 134.203 465.799 149.014C452.662 163.435 446.01 176.202 441.556 195.559C437.72 212.216 440.14 231.334 450.738 268.113C460.81 303.068 467.885 290.708 327.603 483.255C190.44 671.52 183.44 681.645 181.257 694.984C178.332 712.837 184.952 735.969 197.053 750.188C217.673 774.418 251.712 779.691 275.52 762.347C282.191 757.486 291.457 746.897 297.26 737.502C311.519 714.411 442.744 512.595 491.008 439.525C513.194 405.94 534.993 374.765 539.448 370.246C546.175 363.429 550.047 361.704 562.233 360.093C570.31 359.025 582.76 358.522 589.903 358.975C638.843 362.077 680.229 316.715 683.384 256.512C684.314 238.755 680.753 215.532 676.83 213.764C675.445 213.141 664.754 221.696 653.07 232.777C612.86 270.911 604.781 274.801 584.015 266.016C564.646 257.818 541.344 229.89 537.559 210.336C533.583 189.793 538.857 179.847 568.512 151.972C596.528 125.64 598.841 121.069 586.266 116.931C562.022 108.952 520.537 111.903 498.619 123.167ZM225.739 679.681C211.729 686.354 204.936 705.65 210.983 721.595C214.989 732.153 230.797 743.551 241.84 743.847C253.123 744.15 267.624 733.457 270.682 722.578C273.541 712.411 270.855 698.335 264.372 689.513C256.318 678.553 237.932 673.873 225.739 679.681Z" fill="#C66D2C"/>
</svg>
