<svg width="133" height="51" viewBox="0 0 133 51" fill="none" xmlns="http://www.w3.org/2000/svg">
<path d="M41.6108 17.7752C41.6108 19.9021 40.8862 21.7018 39.4371 23.1743C37.988 24.6235 36.2 25.348 34.073 25.348C31.9227 25.348 30.123 24.6235 28.6739 23.1743C27.2248 21.7252 26.5002 19.9255 26.5002 17.7752V5.71484C26.5002 5.01365 26.7106 4.44102 27.1313 3.99694C27.5754 3.55285 28.148 3.33081 28.8492 3.33081C29.5504 3.33081 30.123 3.55285 30.5671 3.99694C31.0112 4.44102 31.2332 5.01365 31.2332 5.71484V7.57298H39.2618C39.963 7.57298 40.5239 7.79502 40.9446 8.2391C41.3887 8.65981 41.6108 9.22076 41.6108 9.92195C41.6108 11.5113 40.8278 12.306 39.2618 12.306H31.2332V17.7752C31.2332 18.5699 31.502 19.2477 32.0396 19.8086C32.6006 20.3462 33.2784 20.615 34.073 20.615C34.8677 20.615 35.5338 20.3462 36.0714 19.8086C36.609 19.2477 36.8778 18.5699 36.8778 17.7752V17.4597C36.8778 16.7819 37.0998 16.2209 37.5439 15.7768C38.0114 15.3328 38.584 15.1107 39.2618 15.1107C39.9396 15.1107 40.5006 15.3328 40.9446 15.7768C41.3887 16.2209 41.6108 16.7819 41.6108 17.4597V17.7752Z" fill="#474747"/>
<path d="M24.5566 22.9989C24.5566 23.7 24.3346 24.2727 23.8905 24.7168C23.4464 25.1375 22.8738 25.3478 22.1726 25.3478C21.4714 25.3478 20.8988 25.1375 20.4547 24.7168C20.034 24.2727 19.8236 23.7 19.8236 22.9989V9.85164C19.8236 9.15046 20.034 8.58951 20.4547 8.1688C20.8988 7.72472 21.4714 7.50268 22.1726 7.50268C23.762 7.50268 24.5566 8.28567 24.5566 9.85164V22.9989ZM22.1726 0C21.3779 0 20.6884 0.292161 20.1041 0.876482C19.5432 1.43743 19.2627 2.11524 19.2627 2.90992C19.2627 3.70459 19.5432 4.39409 20.1041 4.97841C20.6884 5.53936 21.3779 5.81983 22.1726 5.81983C22.9673 5.81983 23.6451 5.53936 24.206 4.97841C24.7904 4.39409 25.0825 3.70459 25.0825 2.90992C25.0825 2.11524 24.7904 1.43743 24.206 0.876482C23.6451 0.292161 22.9673 0 22.1726 0Z" fill="#474747"/>
<path d="M8.94011 20.685C10.1087 20.685 11.1021 20.2759 11.9201 19.4579C12.7616 18.6165 13.1823 17.6114 13.1823 16.4428C13.1823 15.2741 12.7616 14.2808 11.9201 13.4628C11.1021 12.6447 10.1087 12.2357 8.94011 12.2357C7.77146 12.2357 6.77812 12.6447 5.96007 13.4628C5.14202 14.2808 4.733 15.2741 4.733 16.4428V30.151C4.733 30.8521 4.51096 31.4248 4.06687 31.8689C3.62279 32.3129 3.05015 32.535 2.34897 32.535C1.64778 32.535 1.07515 32.3129 0.631066 31.8689C0.210355 31.4248 0 30.8521 0 30.151V16.4428C0 13.9185 0.853108 11.8033 2.55932 10.0971C4.28891 8.36748 6.41584 7.50269 8.94011 7.50269C11.4644 7.50269 13.5913 8.36748 15.3209 10.0971C17.0505 11.8033 17.9153 13.9185 17.9153 16.4428C17.9153 18.9671 17.0505 21.094 15.3209 22.8236C13.5913 24.5532 11.4644 25.418 8.94011 25.418C8.23892 25.418 7.66629 25.1959 7.2222 24.7518C6.80149 24.3077 6.59114 23.7351 6.59114 23.0339C6.59114 22.3327 6.80149 21.7718 7.2222 21.3511C7.66629 20.907 8.23892 20.685 8.94011 20.685Z" fill="#474747"/>
<rect width="7.88719" height="6.97686" transform="matrix(0.999996 0.00277286 -0.00313425 0.999995 47.6399 36.3062)" fill="#474747"/>
<rect width="7.88719" height="6.97686" transform="matrix(-0.999996 -0.00277286 0.00313425 -0.999995 47.5984 50.2595)" fill="#474747"/>
<rect width="7.88719" height="6.97686" transform="matrix(0.999996 0.00277286 -0.00313425 0.999995 31.7673 36.2622)" fill="#474747"/>
<rect width="7.88719" height="6.97686" transform="matrix(-0.999996 -0.00277286 0.00313425 -0.999995 31.7258 50.2151)" fill="#474747"/>
<rect width="7.88719" height="6.97686" transform="matrix(0.999996 0.00277286 -0.00313425 0.999995 15.8943 36.2178)" fill="#474747"/>
<rect width="7.88719" height="6.97686" transform="matrix(-0.999996 -0.00277286 0.00313425 -0.999995 15.8525 50.1711)" fill="#474747"/>
<rect width="7.88719" height="6.97686" transform="matrix(0.999996 0.00285768 -0.00303983 0.999995 0.0209961 36.1738)" fill="#474747"/>
<rect width="7.88719" height="6.97686" transform="matrix(-0.999996 -0.00277286 0.00313425 -0.999995 63.5139 50.1497)" fill="#474747"/>
<rect width="7.88719" height="6.97686" transform="matrix(0.999996 0.00277286 -0.00313425 0.999995 63.5549 36.1963)" fill="#474747"/>
<rect width="7.88719" height="6.97686" transform="matrix(-0.999996 -0.00277286 0.00313425 -0.999995 79.387 50.1934)" fill="#474747"/>
<rect width="7.88719" height="6.97686" transform="matrix(0.999996 0.00277286 -0.00313425 0.999995 79.4275 36.2402)" fill="#474747"/>
<rect width="7.88719" height="6.97686" transform="matrix(-0.999996 -0.00277286 0.00313425 -0.999995 95.2603 50.2375)" fill="#474747"/>
<rect width="7.88719" height="6.97686" transform="matrix(0.999996 0.00277286 -0.00313425 0.999995 95.3013 36.2842)" fill="#474747"/>
<rect width="7.88719" height="6.97686" transform="matrix(0.999996 0.00277286 -0.00313425 0.999995 111.176 36.1738)" fill="#474747"/>
<rect width="7.88719" height="6.97686" transform="matrix(-0.999996 -0.00285768 0.00303983 -0.999995 111.134 50.2812)" fill="#474747"/>
<path d="M73.434 18.1132C73.434 20.2324 72.7183 22.0256 71.2869 23.4927C69.8554 24.9365 68.0892 25.6585 65.9882 25.6585C63.8642 25.6585 62.0864 24.9365 60.655 23.4927C59.2235 22.0489 58.5078 20.2557 58.5078 18.1132V6.09678C58.5078 5.39815 58.7156 4.8276 59.1312 4.38513C59.5698 3.94267 60.1355 3.72144 60.8281 3.72144C61.5208 3.72144 62.0864 3.94267 62.5251 4.38513C62.9637 4.8276 63.1831 5.39815 63.1831 6.09678V7.94816H71.1137C71.8064 7.94816 72.3605 8.16939 72.776 8.61186C73.2147 9.03104 73.434 9.58994 73.434 10.2886C73.434 11.8721 72.6606 12.6639 71.1137 12.6639H63.1831V18.1132C63.1831 18.905 63.4486 19.5804 63.9796 20.1393C64.5337 20.6749 65.2033 20.9427 65.9882 20.9427C66.7732 20.9427 67.4312 20.6749 67.9622 20.1393C68.4933 19.5804 68.7588 18.905 68.7588 18.1132V17.7989C68.7588 17.1235 68.9781 16.5646 69.4168 16.1221C69.8785 15.6797 70.4442 15.4584 71.1137 15.4584C71.7833 15.4584 72.3374 15.6797 72.776 16.1221C73.2147 16.5646 73.434 17.1235 73.434 17.7989V18.1132Z" fill="#474747"/>
<path d="M52.7672 13.2084C52.3694 13.607 52.1705 14.0993 52.1705 14.6855L52.1354 18.7652C52.112 20.6878 51.4333 22.3173 50.0994 23.6538C48.7889 24.9902 47.1742 25.6585 45.2552 25.6585C44.5532 25.6585 43.9798 25.4475 43.5352 25.0254C43.1139 24.5799 42.9033 24.0055 42.9033 23.3021C42.9033 22.5987 43.1139 22.0243 43.5352 21.5788C43.9798 21.1333 44.5532 20.9106 45.2552 20.9106C45.8637 20.9106 46.3668 20.7113 46.7646 20.3127C47.1859 19.8906 47.3965 19.3748 47.3965 18.7652C47.3965 18.5542 47.3965 18.3197 47.3965 18.0618C47.4199 17.1239 47.4316 16.6433 47.4316 16.6198V14.6855C47.4316 12.7394 48.0869 11.1099 49.3974 9.79691C50.7313 8.46046 52.3694 7.79224 54.3118 7.79224C55.0138 7.79224 55.5872 8.01498 56.0318 8.46046C56.4765 8.8825 56.6988 9.44521 56.6988 10.1486C56.6988 10.8286 56.4882 11.3796 56.0669 11.8016C55.6457 12.2236 55.084 12.4698 54.382 12.5402C53.7033 12.587 53.1651 12.8098 52.7672 13.2084Z" fill="#474747"/>
<path d="M111.118 20.9313C112.293 20.9313 113.292 20.5241 114.115 19.7098C114.961 18.8723 115.384 17.8719 115.384 16.7086C115.384 15.5453 114.961 14.5565 114.115 13.7422C113.292 12.928 112.293 12.5208 111.118 12.5208C109.943 12.5208 108.944 12.928 108.122 13.7422C107.299 14.5565 106.888 15.5453 106.888 16.7086V30.3537C106.888 31.0517 106.665 31.6217 106.218 32.0638C105.772 32.5058 105.196 32.7268 104.491 32.7268C103.786 32.7268 103.21 32.5058 102.763 32.0638C102.34 31.6217 102.129 31.0517 102.129 30.3537V16.7086C102.129 14.1959 102.986 12.0904 104.702 10.392C106.441 8.67039 108.58 7.80957 111.118 7.80957C113.657 7.80957 115.795 8.67039 117.534 10.392C119.274 12.0904 120.143 14.1959 120.143 16.7086C120.143 19.2212 119.274 21.3384 117.534 23.06C115.795 24.7817 113.657 25.6425 111.118 25.6425C110.413 25.6425 109.837 25.4215 109.391 24.9794C108.968 24.5374 108.756 23.9674 108.756 23.2694C108.756 22.5715 108.968 22.0131 109.391 21.5943C109.837 21.1523 110.413 20.9313 111.118 20.9313Z" fill="#474747"/>
<path fill-rule="evenodd" clip-rule="evenodd" d="M87.6761 5.99844C87.1206 6.01677 86.6563 6.07511 86.2543 6.17709C85.1947 6.44586 84.4353 7.04435 83.7469 8.15312C83.7144 8.20552 83.6809 8.26014 83.6726 8.27451L83.6574 8.30064L83.8361 8.23993C83.9343 8.20655 84.1475 8.13397 84.3098 8.07864C84.7561 7.92645 84.9562 7.86354 85.2049 7.79714C85.7728 7.64554 86.3202 7.5715 87.2546 7.51994C87.6285 7.49931 87.7628 7.48854 87.9571 7.4636C88.4969 7.39433 88.8606 7.27182 89.1703 7.05495C89.3174 6.95194 89.4633 6.81662 89.6901 6.57286C89.8668 6.38301 89.9734 6.27062 90.0637 6.17916C90.104 6.13832 90.1352 6.10489 90.133 6.10488C90.1309 6.10486 90.0394 6.09738 89.9296 6.08827C89.4532 6.0487 89.0018 6.02037 88.5865 6.00401C88.3854 5.99608 87.8472 5.99279 87.6761 5.99844ZM84.2901 6.19496C83.9015 6.21356 83.5242 6.26 83.1999 6.32916C82.543 6.46925 82.1164 6.69771 81.9705 6.98752C81.8454 7.23604 81.9193 7.53035 82.1905 7.86372C82.2837 7.97827 82.415 8.1119 82.5507 8.23022L82.5928 8.26694L82.6603 8.2015C82.6974 8.16551 82.7708 8.09858 82.8233 8.05278C82.9217 7.96699 82.968 7.92825 83.3937 7.57531C83.8093 7.23083 83.975 7.08377 84.1949 6.86452C84.3943 6.66564 84.4977 6.54465 84.5975 6.39351C84.639 6.33071 84.7032 6.21048 84.7032 6.19558C84.7032 6.18799 84.4441 6.18759 84.2901 6.19496ZM92.8295 6.38006C92.4736 6.40126 92.0676 6.52074 91.6409 6.7298C90.7542 7.16421 89.9907 7.94017 89.3721 9.03573C88.7262 10.1797 88.2437 11.6685 87.9548 13.4095C87.8231 14.203 87.7314 15.0792 87.693 15.9117C87.6645 16.5285 87.6635 17.2209 87.6903 17.7721C87.7884 19.7938 88.1602 21.6375 88.782 23.1855C89.1799 24.1758 89.6738 25.0215 90.2336 25.6708C90.9593 26.5125 91.7773 27.0105 92.6075 27.1158C92.8518 27.1469 93.1291 27.142 93.3744 27.1023C93.7825 27.0364 94.1953 26.8678 94.5857 26.6076C95.4717 26.0171 96.2646 24.9524 96.9188 23.475C97.1068 23.0504 97.2921 22.5694 97.4492 22.0983C97.835 20.9414 98.0674 19.4399 98.1345 17.6713C98.1408 17.5045 98.1544 16.8906 98.154 16.7915C98.1529 16.5331 98.1367 15.9137 98.1232 15.6175C98.0024 12.9672 97.484 10.6185 96.7168 9.24587C96.3223 8.53989 95.7757 7.85713 95.2089 7.36201C94.4138 6.66758 93.6051 6.33384 92.8295 6.38006ZM81.1224 7.89533C81.0517 7.90871 80.9763 7.93555 80.8972 7.97547C80.7288 8.0605 80.5774 8.17905 80.3758 8.38371C80.0193 8.74566 79.6233 9.30144 79.2083 10.022C79.1666 10.0944 79.1278 10.1614 79.1221 10.1709L79.1117 10.1881L79.1964 10.2858C79.3835 10.5015 79.6373 10.7684 80.0641 11.1987C80.2094 11.3451 80.4199 11.5581 80.5319 11.6719C80.6438 11.7857 80.7365 11.8778 80.7378 11.8765C80.7481 11.8659 81.6225 10.2817 81.6299 10.2602C81.6461 10.2127 81.6829 10.0745 81.7074 9.96903C81.7517 9.77849 81.7873 9.56016 81.8071 9.35795C81.8212 9.21295 81.8212 8.86012 81.8071 8.74152C81.78 8.51552 81.7411 8.36384 81.6744 8.22534C81.589 8.04792 81.4818 7.94523 81.3377 7.90285C81.2874 7.88804 81.1806 7.88431 81.1224 7.89533ZM87.8756 8.07221C86.6974 8.09309 85.757 8.21038 84.9818 8.43314C83.3813 8.89303 82.3938 9.84133 81.8099 11.479C81.755 11.6329 81.6347 12.015 81.6347 12.0354C81.6347 12.0447 82.2787 11.7985 83.006 11.511C83.4971 11.3169 83.6662 11.2517 83.8401 11.1894C84.7228 10.8728 85.3975 10.7706 86.7769 10.7445C86.9577 10.7411 87.1059 10.7379 87.1062 10.7374C87.1126 10.7275 88.328 8.07608 88.328 8.07205C88.328 8.06562 88.2455 8.06565 87.8756 8.07221ZM78.832 11.0635C78.6073 11.3345 78.4135 11.6657 78.235 12.0838C77.8767 12.923 77.6324 14.0622 77.5578 15.242C77.5477 15.4016 77.5362 15.6935 77.5388 15.7247L77.5407 15.7478L78.8276 16.7684C79.5354 17.3297 80.116 17.789 80.1179 17.789C80.1197 17.789 80.1229 17.7139 80.125 17.6222C80.1486 16.5955 80.2177 15.2256 80.3112 13.9307C80.3385 13.5519 80.3422 13.4762 80.3421 13.2891C80.3419 13.0264 80.3243 12.8181 80.2855 12.6222C80.1569 11.9729 79.8282 11.5399 79.1817 11.168C79.1161 11.1303 78.939 11.037 78.9021 11.0207L78.8768 11.0095L78.832 11.0635ZM85.7176 11.3651C84.306 11.4113 83.2144 11.7757 82.4255 12.464C81.9578 12.8721 81.5895 13.4066 81.3343 14.0476C81.0612 14.7336 80.915 15.4899 80.8646 16.4777C80.8499 16.7648 80.8529 17.4936 80.8695 17.6829L80.8732 17.7254L81.1458 17.4938C81.4465 17.2383 81.5838 17.1068 81.8088 16.8587C81.9456 16.7079 82.2426 16.4105 82.3485 16.3184C82.9196 15.8211 83.4642 15.5526 84.2592 15.3765C84.5965 15.3018 84.9209 15.2498 85.726 15.1411C86.207 15.0762 86.4018 15.0491 86.4043 15.0466C86.4083 15.0427 87.0018 11.41 86.9989 11.4071C86.9917 11.4 86.621 11.3759 86.3779 11.3669C86.2471 11.3621 85.8436 11.3609 85.7176 11.3651ZM93.2172 11.5555C92.9664 11.5795 92.7555 11.6609 92.5337 11.8192C92.4032 11.9124 92.2244 12.0801 92.1108 12.2159C91.7611 12.6339 91.4843 13.1882 91.2927 13.8543C91.1062 14.5023 90.9812 15.2143 90.9329 15.9033C90.9152 16.156 90.9125 16.23 90.9092 16.5338C90.9027 17.1523 90.94 17.6773 91.0313 18.2513C91.3279 20.1153 92.1302 21.5922 93.0037 21.882C93.1348 21.9255 93.1787 21.9325 93.3212 21.9327C93.4294 21.9328 93.4522 21.9312 93.5039 21.92C93.9225 21.829 94.2764 21.4906 94.6124 20.8599C94.8345 20.4429 95.0882 19.71 95.2008 19.16C95.4597 17.8954 95.4524 15.8155 95.1838 14.2955C95.0589 13.5887 94.9021 13.0863 94.6746 12.6642C94.3033 11.9756 93.8674 11.6038 93.3774 11.5577C93.3187 11.5522 93.2607 11.5514 93.2172 11.5555ZM85.6726 15.8056C84.339 15.8539 83.3104 16.1948 82.5871 16.8281C82.5069 16.8984 82.3614 17.0457 82.2894 17.1297C81.8416 17.6518 81.5745 18.3072 81.4887 19.0947C81.4664 19.2995 81.4633 19.3672 81.4633 19.6634C81.4633 19.9678 81.4668 20.046 81.4916 20.2911C81.5764 21.1322 81.8161 22.0318 82.2176 23.016C82.2506 23.0969 82.2794 23.1631 82.2815 23.1631C82.2837 23.1631 82.4054 23.0389 82.552 22.8871C83.6425 21.7581 84.1876 21.2503 84.6329 20.9484C84.8186 20.8226 84.9653 20.742 85.3832 20.5364C85.7017 20.3797 85.7392 20.3633 85.9255 20.2995C86.2384 20.1923 86.3855 20.1263 86.5541 20.0175L86.6151 19.9781L86.6116 19.8908C86.6096 19.8428 86.5851 18.9058 86.5571 17.8086C86.529 16.7113 86.5057 15.8132 86.5052 15.8127C86.5047 15.8122 86.4196 15.8091 86.3161 15.8057C86.11 15.799 85.8565 15.799 85.6726 15.8056ZM77.5042 16.84C77.5042 16.9967 77.5067 17.1917 77.5099 17.2734C77.5627 18.6555 77.7941 20.1362 78.106 21.0882C78.128 21.1553 78.1599 21.2454 78.177 21.2886C78.4105 21.8795 78.9125 22.3077 79.7333 22.616C80.0981 22.753 80.5355 22.8695 81.2295 23.0144C81.3265 23.0347 81.4072 23.05 81.4088 23.0484C81.4117 23.0455 81.1906 22.3351 81.0268 21.8209C80.543 20.3022 80.1652 19.386 79.7147 18.6392C79.4427 18.1882 79.1706 17.8362 78.8363 17.5029C78.4614 17.129 78.09 16.859 77.6039 16.6069L77.5042 16.5552L77.5042 16.84ZM86.2522 20.9047C85.7213 20.9348 85.2563 21.0569 84.824 21.2797C84.359 21.5194 83.9701 21.8641 83.6889 22.2861C83.6023 22.416 83.5645 22.4807 83.5009 22.6075C83.3422 22.9238 83.2463 23.2556 83.2102 23.6126C83.197 23.7433 83.1971 24.0095 83.2104 24.1353C83.2826 24.82 83.5778 25.4244 84.0899 25.9359C84.2001 26.0459 84.4201 26.2382 84.4482 26.249C84.4555 26.2518 84.501 26.2248 84.5987 26.1597C84.7908 26.0317 84.9125 25.9239 85.1345 25.6853C85.3683 25.434 85.4958 25.3124 85.6754 25.1694C85.8913 24.9976 86.0803 24.8752 86.2938 24.769C86.4854 24.6737 86.6313 24.6198 86.9624 24.5222C87.3044 24.4213 87.4635 24.3635 87.6611 24.2681C87.7576 24.2215 87.7722 24.2128 87.7702 24.2028C87.769 24.1965 87.5419 23.4534 87.2655 22.5515L86.763 20.9117L86.7236 20.9082C86.6551 20.9021 86.3392 20.8997 86.2522 20.9047ZM79.0665 22.9032C79.0665 22.909 79.0777 22.9566 79.0914 23.009C79.1632 23.2847 79.2549 23.523 79.4064 23.8271C79.6689 24.3543 80.0301 24.8725 80.4904 25.3822C80.5859 25.4879 80.9234 25.8245 81.0278 25.9181C81.3904 26.2433 81.7414 26.5053 82.1096 26.7256C82.7682 27.1197 83.4009 27.3363 84.0288 27.3827C84.1077 27.3886 84.3828 27.3906 84.3828 27.3854C84.3828 27.378 84.2153 27.115 84.1312 26.9905C83.9254 26.6854 83.7303 26.4423 83.4027 26.0827C83.171 25.8283 83.0776 25.7189 82.7165 25.2785C82.2299 24.685 82.0891 24.5266 81.7808 24.2257C81.2543 23.7118 80.6571 23.347 79.9628 23.1152C79.7257 23.036 79.4886 22.9736 79.2323 22.9228C79.0719 22.8911 79.0665 22.8905 79.0665 22.9032ZM87.6789 25.0124C87.3051 25.0441 86.9533 25.1206 86.6318 25.24C86.0868 25.4426 85.6976 25.7387 85.543 26.0687C85.4927 26.176 85.4676 26.2786 85.4633 26.3946C85.4572 26.5569 85.4908 26.7002 85.5742 26.8682C85.6344 26.9893 85.6881 27.0586 85.7711 27.1223C86.2069 27.4567 87.3105 27.5829 89.1513 27.5088C89.4739 27.4958 90.2761 27.4539 90.28 27.4498C90.2843 27.4453 88.1704 25.021 88.1576 25.0157C88.1412 25.0091 87.7502 25.0063 87.6789 25.0124Z" fill="#C66D2C"/>
</svg>
