<svg width="247" height="93" viewBox="0 0 247 93" fill="none" xmlns="http://www.w3.org/2000/svg">
<path fill-rule="evenodd" clip-rule="evenodd" d="M134.487 0.0424164C133.748 0.227605 133.582 0.470849 132.516 2.93013C131.543 5.17492 131.385 5.43344 130.852 5.66224C130.692 5.73096 130.253 5.84558 129.876 5.91687C129.26 6.0334 128.278 6.23459 126.649 6.57758C125.863 6.74294 125.063 6.80741 124.599 6.74276C123.928 6.64924 123.715 6.50126 122.438 5.23944C121.189 4.00555 120.717 3.64386 120.105 3.45412C118.958 3.09806 117.845 3.48078 115.925 4.89093C115.33 5.3274 114.533 5.88739 114.154 6.13549C110.834 8.30449 109.098 9.5146 108.771 9.88917C108.494 10.2066 108.22 10.7844 108.153 11.1926C108.039 11.8829 108.221 12.5732 108.931 14.1498C109.552 15.5288 109.621 15.7688 109.621 16.5463C109.621 17.1788 109.613 17.2211 109.418 17.5948C109.212 17.99 108.89 18.4865 108.001 19.7816C107.73 20.177 107.31 20.8375 107.069 21.2494C106.828 21.6613 106.562 22.0877 106.48 22.197C106.098 22.701 105.503 22.8058 102.718 22.859C100.765 22.8962 100.598 22.9079 100.345 23.0237C99.8904 23.2317 99.6369 23.6051 99.3652 24.4658C99.1417 25.1739 99.1026 25.3549 98.1835 29.926C97.1143 35.2443 97.045 35.7408 97.2578 36.5594C97.47 37.3761 97.9044 37.7018 99.936 38.5676C101.328 39.1607 101.702 39.3765 102.218 39.883C103.033 40.6824 103.236 41.2652 103.706 44.1659C103.975 45.8245 103.988 46.0833 103.838 46.6571C103.644 47.3994 103.242 47.9085 101.864 49.1569C101.176 49.7806 100.762 50.2996 100.546 50.8121C100.267 51.4716 100.356 51.9359 101.007 53.2126C101.884 54.9351 103.235 57.0347 105.324 59.9221C106.224 61.1661 106.876 61.9884 107.333 62.4561C107.748 62.8813 108.048 63.0083 108.639 63.0083C109.294 63.0083 109.76 62.8514 111.551 62.0285C112.561 61.5642 113.078 61.4304 113.739 61.4619C114.214 61.4846 114.308 61.5106 114.752 61.7418C115.677 62.2236 116.989 63.0574 117.816 63.6897C118.78 64.4269 119.437 65.1192 119.746 65.7219C119.965 66.151 120.049 67.1759 120.004 68.8819C119.96 70.5789 119.973 70.6653 120.333 71.0329C120.839 71.5495 122.391 71.9992 126.01 72.6774C126.802 72.826 128.452 73.1368 129.676 73.3681C132.315 73.867 132.808 73.9311 133.382 73.8498C134.491 73.6928 134.923 73.1995 135.612 71.3061C136.023 70.1764 136.503 69.2335 136.811 68.9504C137.68 68.1509 139.999 67.3922 142.346 67.1401C142.865 67.0844 143.063 67.0844 143.232 67.14C143.903 67.3611 145.295 68.7785 146.793 70.7669C147.414 71.5907 148.409 72.8983 149.006 73.6726C149.998 74.9614 151.065 76.3587 156.048 82.8991C160.348 88.542 161.661 90.2179 162.112 90.6382C164.822 93.1646 168.883 93.4998 171.963 91.4513C173.75 90.2633 174.936 88.5145 175.417 86.3589C175.547 85.7765 175.6 84.1516 175.51 83.4799C175.431 82.8879 175.223 82.1262 174.958 81.4612C174.585 80.5262 174.49 80.3929 170.169 74.7511C169.424 73.779 168.263 72.2557 167.588 71.366C166.913 70.4763 166.221 69.5732 166.051 69.359C165.177 68.2593 162.568 64.788 161.998 63.9659C159.543 60.4253 158.455 58.2617 158.6 57.207C158.661 56.7607 159.372 55.4344 160.276 54.0813C161.529 52.2045 162.472 51.3789 163.571 51.1973C163.779 51.163 164.773 51.1302 165.78 51.1247C167.398 51.1158 167.639 51.1021 167.851 51.0071C168.686 50.6333 169.049 49.6456 169.826 45.6337C170.008 44.6946 170.366 42.8478 170.622 41.5297C171.067 39.2371 171.087 39.0956 171.09 38.2645C171.093 37.4176 171.089 37.387 170.915 37.0452C170.587 36.3973 170.085 36.0734 168.632 35.5701C167.507 35.1806 166.759 34.8297 166.277 34.4655C165.965 34.2291 165.865 34.1055 165.665 33.7058C164.954 32.2885 164.368 29.6094 164.409 27.9685C164.428 27.2094 164.442 27.1266 164.601 26.8137C164.873 26.278 165.223 25.8793 166.219 24.9726C166.731 24.5063 167.251 23.9842 167.375 23.8124C167.891 23.0957 168.032 22.4864 167.85 21.7587C167.651 20.9614 167.14 20.1248 165.126 17.3009C164.106 15.871 163.531 15.0104 163.02 14.1498C161.983 12.4016 161.422 11.74 160.66 11.3657C159.708 10.8979 159.047 10.9696 157.186 11.743C155.46 12.4598 155.266 12.5215 154.735 12.5239C154.05 12.5269 153.706 12.3678 152.003 11.2575C148.785 9.15986 148.575 8.9954 148.442 8.47375C148.407 8.33337 148.364 7.47711 148.348 6.57093C148.332 5.66476 148.289 4.69418 148.252 4.41409C148.14 3.54962 147.759 2.91904 147.078 2.46748C146.225 1.90251 145.287 1.67233 141.948 1.20831C141.337 1.12347 140.027 0.882087 139.037 0.671974C136.245 0.0798018 135.016 -0.0902293 134.487 0.0424164ZM242.02 11.3713C240.251 11.5179 238.748 12.8111 238.296 14.576C238.18 15.0279 238.178 15.2907 238.179 26.9357C238.18 40.2401 238.147 39.2534 238.623 40.2117C239.381 41.7369 240.723 42.5748 242.41 42.5768C244.406 42.579 246.093 41.2847 246.625 39.3429C246.726 38.9758 246.732 38.2644 246.732 26.9411C246.732 15.5061 246.727 14.9102 246.623 14.5445C246.419 13.8276 245.908 12.9614 245.433 12.5276C244.459 11.6379 243.347 11.2612 242.02 11.3713ZM132.463 14.7002C129.517 14.9209 126.39 15.7705 123.849 17.0409C121.378 18.2762 119.43 19.6867 117.572 21.5869C115.936 23.26 114.818 24.8292 113.763 26.9341C112.621 29.212 111.962 31.4454 111.621 34.1905C111.497 35.1843 111.519 38.6862 111.654 39.6724C112.096 42.8794 113.102 45.771 114.734 48.524C116.375 51.2912 118.728 53.7893 121.318 55.5141C124.586 57.69 128.246 58.9385 132.235 59.2386C133.408 59.3268 135.827 59.2802 136.819 59.1502C142.047 58.4652 147.208 55.6953 150.728 51.6849C154.013 47.9409 155.839 43.5756 156.241 38.5042C156.326 37.4359 156.279 35.3368 156.147 34.3103C155.708 30.8803 154.402 27.3898 152.494 24.5446C150.239 21.1816 147.396 18.6616 143.868 16.8994C141.463 15.6984 138.702 14.947 135.861 14.7207C135.151 14.6642 133.109 14.6519 132.463 14.7002ZM132.403 21.6131C129.385 21.9116 126.438 23.0672 124.029 24.897C123.214 25.516 121.739 27 121.102 27.8413C119.397 30.0966 118.348 32.6662 117.986 35.4786C117.86 36.4592 117.892 38.6659 118.046 39.6724C118.868 45.0228 122.4 49.5471 127.39 51.6442C129.798 52.6559 131.997 53.068 134.534 52.9833C136.984 52.9015 139.162 52.3578 141.301 51.2939C142.496 50.6995 143.597 49.901 144.681 48.8425C145.906 47.6454 146.407 46.5784 146.412 45.1544C146.417 43.7938 145.877 42.7793 144.656 41.8559C143.766 41.1824 142.98 40.9328 141.888 40.9764C140.773 41.0209 140.097 41.3219 138.515 42.4789C137.101 43.5133 136.436 43.8706 135.45 44.1282C134.441 44.3917 133.144 44.4284 132.148 44.2218C130.53 43.8859 128.868 42.6803 127.765 41.0412C126.327 38.9066 126.111 36.7154 127.125 34.5561C127.915 32.8735 129.222 31.5311 130.812 30.7702C131.924 30.2381 133.036 30.047 134.315 30.1682C135.873 30.3158 136.855 30.7264 138.445 31.8942C139.769 32.866 140.384 33.2039 141.217 33.4165C142.28 33.688 143.413 33.467 144.409 32.7936C145.774 31.8713 146.419 30.7465 146.408 29.3076C146.398 27.896 145.911 26.8177 144.771 25.6814C142.618 23.5334 139.919 22.2484 136.455 21.7214C135.546 21.583 133.311 21.5233 132.403 21.6131ZM190.498 22.5073C187.213 22.7626 184.153 23.9949 181.697 26.0515C179.775 27.6617 178.509 29.287 177.389 31.5843C176.004 34.4258 175.569 37.5835 176.112 40.8407C176.567 43.5637 178.011 46.505 179.936 48.6293C182.091 51.0068 184.842 52.6865 187.833 53.451C189.063 53.7654 189.737 53.8512 191.233 53.8841C192.757 53.9176 193.442 53.85 194.71 53.541C195.921 53.2459 197.516 52.5696 198.721 51.8403C199.025 51.6559 199.297 51.5051 199.326 51.5051C199.354 51.5051 199.462 51.6362 199.567 51.7964C199.861 52.2506 200.512 52.8244 201.019 53.0776C201.667 53.401 202.13 53.5059 202.909 53.5059C203.666 53.5059 204.125 53.4055 204.781 53.096C205.893 52.572 206.674 51.6996 207.103 50.5022L207.292 49.9774V43.357C207.292 37.2586 207.283 36.6825 207.183 36.0478C206.897 34.2387 206.497 32.9283 205.764 31.4017C203.434 26.5462 198.734 23.1847 193.425 22.5746C192.622 22.4824 191.23 22.4504 190.498 22.5073ZM227.792 22.9319C224.027 23.2997 220.538 24.959 217.792 27.6881C215.091 30.3722 213.553 33.4196 212.982 37.216C212.884 37.8717 212.875 38.4676 212.875 43.9861V50.0373L213.038 50.5178C213.347 51.4274 213.896 52.1618 214.662 52.6902C216.365 53.8654 218.466 53.7836 219.998 52.4827C220.574 51.993 220.912 51.494 221.227 50.6663L221.398 50.217L221.435 44.3156C221.459 40.6265 221.496 38.302 221.535 38.1147C221.906 36.3291 222.547 35.0693 223.678 33.8993C224.344 33.2107 225.027 32.7108 225.864 32.3004C227.053 31.7175 227.801 31.535 229.39 31.4407C230.171 31.3942 230.448 31.3528 230.83 31.2247C232.2 30.7664 233.233 29.7555 233.677 28.4389C233.773 28.1529 233.816 27.8506 233.837 27.3006C233.874 26.3625 233.776 25.8602 233.409 25.1002C232.915 24.0794 232.028 23.3573 230.884 23.0449C230.497 22.9393 230.204 22.9101 229.383 22.8949C228.822 22.8846 228.106 22.9012 227.792 22.9319ZM190.42 31.1626C188.82 31.4527 187.276 32.3424 186.238 33.5724C185.464 34.4899 184.892 35.6432 184.653 36.7667C184.523 37.3809 184.506 38.8691 184.624 39.4628C185.343 43.1064 188.649 45.6153 192.279 45.272C194.865 45.0274 196.941 43.5462 198.07 41.14C199.355 38.4004 198.71 35.119 196.466 32.9789C195.496 32.0542 194.186 31.3931 192.869 31.1639C192.254 31.0568 191.007 31.0562 190.42 31.1626ZM241.526 44.7376C240.571 44.972 239.653 45.5798 239.029 46.391C238.751 46.7519 238.438 47.4471 238.291 48.0256C238.114 48.7287 238.15 49.7611 238.377 50.4579C238.911 52.0941 240.307 53.2457 242.05 53.4892C244.174 53.7856 246.336 52.2886 246.886 50.1407C247.028 49.5874 247.039 48.6447 246.911 48.1002C246.524 46.4633 245.095 45.0453 243.489 44.7057C242.918 44.5851 242.093 44.5985 241.526 44.7376Z" fill="#315C32"/>
<path fill-rule="evenodd" clip-rule="evenodd" d="M3.30276 11.0923C2.01906 11.4316 1.03113 12.2143 0.484611 13.3249C-0.0458827 14.403 0.00106146 13.0639 0.00106146 27.121C0.00106146 40.754 -0.0195291 39.8733 0.336754 41.4999C0.953812 44.3173 2.50999 47.1267 4.61972 49.2323C8.18532 52.7909 13.0813 54.4151 18.0559 53.6898C19.7269 53.4462 21.0432 53.0342 22.6327 52.2574C27.3849 49.9351 30.691 45.304 31.3383 40.0628C31.4478 39.1758 31.4638 37.2888 31.369 36.4373C31.1644 34.5993 30.6842 32.9718 29.8398 31.2549C26.6802 24.8308 19.7227 21.357 12.7576 22.7261C11.555 22.9624 9.90839 23.5057 8.98643 23.9701C8.71491 24.107 8.60523 24.1374 8.58482 24.0819C8.56934 24.0399 8.54922 21.8622 8.54004 19.2425C8.52131 13.897 8.54923 14.2453 8.06063 13.2513C7.69727 12.512 7.00127 11.8273 6.21426 11.435C5.8982 11.2774 5.45667 11.1119 5.22375 11.0637C4.64469 10.9438 3.81789 10.9561 3.30276 11.0923ZM79.5476 22.4848C77.2693 22.6593 75.1461 23.3697 73.4189 24.5354C72.6915 25.0264 71.5941 26.1263 71.1181 26.8415C69.9726 28.5627 69.4385 30.6543 69.6091 32.7515C69.7158 34.0616 70.0336 35.0078 70.7212 36.0622C71.8575 37.8046 73.3107 38.9478 76.0903 40.2862C77.9701 41.1914 78.427 41.3867 79.6351 41.8017C82.5174 42.7915 83.7519 43.4573 83.87 44.0853C84.0188 44.8773 82.948 45.505 81.313 45.5844C79.5293 45.6708 77.676 44.9443 76.0903 43.5367C74.8877 42.4693 73.6326 41.9464 72.2483 41.9362C71.4862 41.9305 71.0301 42.0354 70.3325 42.3767C69.4189 42.8237 68.7242 43.6935 68.4912 44.682C68.345 45.3026 68.4015 46.4386 68.6093 47.0571C69.48 49.6479 71.7962 51.733 75.0491 52.8544C76.9728 53.5176 78.9378 53.8359 81.1028 53.8352C82.8383 53.8346 83.8954 53.6792 85.3712 53.208C88.8911 52.0838 91.5102 49.4102 92.2765 46.1587C92.3979 45.6434 92.4349 45.2977 92.4608 44.4356C92.5231 42.3651 92.1592 40.9433 91.1842 39.4485C90.035 37.6863 88.4339 36.4177 85.9954 35.3371C84.5483 34.6958 83.1469 34.2276 80.5051 33.5025C79.5452 33.2391 78.6847 32.8751 78.4172 32.6193C78.1027 32.3185 78.1253 31.7839 78.4687 31.4046C78.887 30.9425 79.5244 30.7679 81.0128 30.7081C82.5543 30.6461 83.1665 30.7598 84.9591 31.4412C86.599 32.0644 86.8923 32.1462 87.4961 32.148C88.1473 32.15 88.5344 32.0559 89.207 31.7323C89.8506 31.4226 90.2623 31.0752 90.641 30.5219C91.7221 28.943 91.4942 26.7164 90.1001 25.2375C89.3221 24.4121 88.2671 23.8064 86.7111 23.2919C84.6158 22.599 81.9621 22.3 79.5476 22.4848ZM38.9011 22.8722C37.7894 23.1382 37.2607 23.4169 36.5888 24.0913C36.025 24.6573 35.7377 25.1325 35.4999 25.8928L35.3593 26.3421V33.1421C35.3593 39.2731 35.3694 40.0085 35.4626 40.6161C36.0041 44.149 37.4843 47.0634 39.96 49.4707C42.7681 52.2012 46.2408 53.6923 50.1569 53.849C53.2136 53.9712 56.0961 53.1809 58.5684 51.5427C60.2328 50.4398 61.4578 49.2219 62.5532 47.581C64.0611 45.3219 64.9383 42.8813 65.2232 40.1519C65.2585 39.8138 65.283 36.9171 65.2837 33.0169C65.2846 26.6804 65.2805 26.435 65.1665 25.99C64.8665 24.8192 64.0563 23.8093 63.0035 23.2936C62.3398 22.9686 61.7951 22.8396 61.0825 22.8387C59.301 22.8365 57.6528 23.9569 56.9875 25.6226C56.7098 26.3178 56.7046 26.4518 56.7024 33.0239C56.7002 39.3381 56.6865 39.7778 56.4646 40.6435C55.7777 43.3244 53.8993 44.9996 51.3067 45.2436C49.9309 45.373 48.7114 45.1332 47.4555 44.486C45.4338 43.4442 44.2147 41.6293 43.9758 39.3053C43.9373 38.9315 43.9137 36.3675 43.9137 32.5792C43.9137 27.2978 43.9011 26.4081 43.8224 26.1001C43.4529 24.6544 42.3942 23.5304 40.9422 23.0421C40.5485 22.9098 40.332 22.8773 39.7415 22.8621C39.3453 22.8519 38.9671 22.8564 38.9011 22.8722ZM14.2884 31.1634C11.4056 31.787 9.17667 34.0934 8.67043 36.9765C8.56009 37.6048 8.57372 38.8095 8.69834 39.4516C9.07348 41.3839 10.2928 43.1442 11.9964 44.2128C15.062 46.1358 19.2014 45.3774 21.376 42.4944C24.2616 38.6688 22.7109 33.1481 18.2826 31.4816C17.432 31.1615 17.0496 31.0952 15.9093 31.0703C15.0004 31.0503 14.7429 31.0651 14.2884 31.1634Z" fill="#474747"/>
</svg>
